<svg width="138" height="138" viewBox="0 0 138 138" fill="none" xmlns="http://www.w3.org/2000/svg">
<g clip-path="url(#clip0_13_2)">
<rect width="138" height="138" rx="69" fill="white"/>
<path d="M67.5007 87.657C67.5007 97.1527 60.9271 102.692 50.445 102.692C38.9937 102.692 31.0474 96.9099 23.6133 79.1818C23.2076 78.2141 23.6384 77.1028 24.5823 76.6444L30.5464 73.7475C31.5987 73.2364 32.8631 73.7387 33.3024 74.8229C38.2207 86.9618 42.6983 92.5807 48.9348 92.5807C53.1988 92.5807 55.7749 90.4706 55.7749 86.4261C55.7749 84.3156 54.9262 82.399 53.4526 80.6762C52.9884 80.1334 52.2426 79.9527 51.5464 80.1124C49.7941 80.5143 47.9254 80.7792 45.9403 80.983C44.9182 81.088 43.9946 80.3815 43.8063 79.3714L42.8467 74.2226C42.6329 73.0756 43.4471 71.9944 44.6026 71.8326C52.0112 70.7955 54.1759 68.9149 54.1759 65.8522C54.1759 62.9508 52.044 61.4561 48.5795 61.4561C45.7304 61.4561 42.8812 62.0779 40.0321 63.3669C38.9026 63.8779 37.534 63.3806 37.1118 62.215L35.1433 56.7799C34.8007 55.8341 35.2113 54.7747 36.1287 54.3619C40.1994 52.5305 44.8327 51.433 50.0897 51.433C61.4601 51.433 66.1682 57.4117 66.1682 65.2368C66.1682 67.8015 65.5523 70.1292 64.3629 72.1567C63.4935 73.6387 64.2201 75.843 65.9367 75.9179C66.6131 75.9474 67.3113 75.9633 68.0337 75.9633C70.6275 75.9633 73.0977 75.7186 75.4959 75.1269C76.3473 74.9168 76.9168 74.1345 76.9168 73.2575V64.1595C76.9168 63.0549 76.0214 62.1595 74.9168 62.1595H73.3204C72.2159 62.1595 71.3204 61.2641 71.3204 60.1595V54.3122C71.3204 53.2076 72.2159 52.3122 73.3204 52.3122H95.5258C96.6303 52.3122 97.5258 53.2076 97.5258 54.3122V60.1595C97.5258 61.2641 96.6303 62.1595 95.5258 62.1595H91.2644C90.1599 62.1595 89.2644 63.0549 89.2644 64.1595V105C89.2644 106.105 88.369 107 87.2644 107H78.9168C77.8123 107 76.9168 106.105 76.9168 105V87.1438C76.9168 85.8698 75.7412 84.9249 74.4791 85.0982C73.2026 85.2735 71.9062 85.3711 70.6098 85.3711C70.328 85.3711 70.0399 85.3649 69.749 85.3542C68.4905 85.3081 67.4969 86.3593 67.5006 87.6187C67.5006 87.6315 67.5007 87.6442 67.5007 87.657Z" fill="#2563EB"/>
<path d="M101.834 40.2136L102.195 38.4052C102.302 37.8692 103.069 37.8692 103.176 38.4052L103.538 40.2136C104.103 43.0417 106.314 45.2524 109.142 45.8181L110.95 46.1798C111.486 46.287 111.486 47.0532 110.95 47.1604L109.142 47.522C106.314 48.0878 104.103 50.2985 103.538 53.1265L103.176 54.935C103.069 55.4709 102.302 55.4709 102.195 54.935L101.834 53.1265C101.268 50.2985 99.0573 48.0878 96.2291 47.522L94.4207 47.1604C93.8847 47.0532 93.8847 46.287 94.4207 46.1798L96.2291 45.8181C99.0573 45.2524 101.268 43.0417 101.834 40.2136Z" fill="#2563EB"/>
<path d="M95.016 32.6261L95.0509 32.4514C95.1581 31.9155 95.9243 31.9155 96.0315 32.4514L96.0665 32.6261C96.3493 34.0402 97.4546 35.1455 98.8687 35.4283L99.0434 35.4633C99.5793 35.5704 99.5793 36.3367 99.0434 36.4438L98.8687 36.4788C97.4546 36.7616 96.3493 37.8669 96.0665 39.281L96.0315 39.4557C95.9243 39.9916 95.1581 39.9916 95.0509 39.4557L95.016 39.281C94.7332 37.8669 93.6278 36.7616 92.2138 36.4788L92.0391 36.4438C91.5032 36.3367 91.5032 35.5704 92.0391 35.4633L92.2138 35.4283C93.6278 35.1455 94.7332 34.0402 95.016 32.6261Z" fill="#2563EB"/>
<path d="M109.347 33.6029V33.6029C109.453 33.0756 110.207 33.0756 110.312 33.6029V33.6029C110.501 34.5457 111.238 35.2826 112.181 35.4711V35.4711C112.708 35.5766 112.708 36.3305 112.181 36.436V36.436C111.238 36.6246 110.501 37.3615 110.312 38.3042V38.3042C110.207 38.8316 109.453 38.8316 109.347 38.3042V38.3042C109.159 37.3615 108.422 36.6246 107.479 36.436V36.436C106.952 36.3305 106.952 35.5766 107.479 35.4711V35.4711C108.422 35.2826 109.159 34.5457 109.347 33.6029Z" fill="#2563EB"/>
</g>
<defs>
<clipPath id="clip0_13_2">
<rect width="138" height="138" fill="white"/>
</clipPath>
</defs>
</svg>
