<svg width="237" height="78" viewBox="0 0 237 78" fill="none" xmlns="http://www.w3.org/2000/svg">
<path d="M220.427 12.8665L221.01 9.95158C221.117 9.41565 221.883 9.41565 221.99 9.95158L222.573 12.8665C223.286 16.4292 226.071 19.2141 229.633 19.9268L232.548 20.5097C233.084 20.6169 233.084 21.3831 232.548 21.4903L229.633 22.0732C226.071 22.7859 223.286 25.5708 222.573 29.1334L221.99 32.0484C221.883 32.5843 221.117 32.5843 221.01 32.0484L220.427 29.1334C219.714 25.5708 216.929 22.7859 213.367 22.0732L210.452 21.4903C209.916 21.3831 209.916 20.6169 210.452 20.5097L213.367 19.9268C216.929 19.2141 219.714 16.4292 220.427 12.8665Z" fill="#2563EB"/>
<path d="M211.838 3.30826L212.01 2.45146C212.117 1.91554 212.883 1.91554 212.99 2.45146L213.162 3.30826C213.518 5.08963 214.91 6.48207 216.692 6.83835L217.549 7.00971C218.084 7.11689 218.084 7.88311 217.549 7.99029L216.692 8.16165C214.91 8.51793 213.518 9.91037 213.162 11.6917L212.99 12.5485C212.883 13.0845 212.117 13.0845 212.01 12.5485L211.838 11.6917C211.482 9.91037 210.09 8.51793 208.308 8.16165L207.451 7.99029C206.916 7.88311 206.916 7.11689 207.451 7.00971L208.308 6.83835C210.09 6.48207 211.482 5.08963 211.838 3.30826Z" fill="#2563EB"/>
<path d="M229.892 4.53883L230.01 3.95132C230.117 3.4154 230.883 3.4154 230.99 3.95132L231.108 4.53883C231.345 5.72643 232.274 6.65472 233.461 6.89223L234.049 7.00971C234.584 7.11689 234.584 7.88311 234.049 7.99029L233.461 8.10777C232.274 8.34528 231.345 9.27359 231.108 10.4612L230.99 11.0487C230.883 11.5846 230.117 11.5846 230.01 11.0487L229.892 10.4612C229.655 9.27359 228.726 8.34528 227.539 8.10777L226.951 7.99029C226.416 7.88311 226.416 7.11689 226.951 7.00971L227.539 6.89223C228.726 6.65472 229.655 5.72641 229.892 4.53883Z" fill="#2563EB"/>
<path d="M195.715 64C195.163 64 194.715 63.5523 194.715 63V32.36C194.715 31.8077 195.163 31.36 195.715 31.36H203.315C203.867 31.36 204.315 31.8077 204.315 32.36V63C204.315 63.5523 203.867 64 203.315 64H195.715ZM195.395 27.008C194.843 27.008 194.395 26.5603 194.395 26.008V17.64C194.395 17.0877 194.843 16.64 195.395 16.64H203.635C204.187 16.64 204.635 17.0877 204.635 17.64V26.008C204.635 26.5603 204.187 27.008 203.635 27.008H195.395Z" fill="#2563EB"/>
<path d="M180.835 64C180.384 64 179.987 63.6987 179.886 63.2592C179.72 62.5387 179.59 61.7829 179.495 60.992C179.413 59.9578 179.37 58.7631 179.368 57.408C179.367 57.3373 179.31 57.28 179.239 57.28V57.28C179.169 57.28 179.111 57.2227 179.111 57.152V41.856C179.111 40.5333 178.663 39.5093 177.767 38.784C176.914 38.016 175.634 37.632 173.927 37.632C172.306 37.632 171.005 37.9093 170.023 38.464C169.306 38.8882 168.775 39.4621 168.431 40.1858C168.239 40.5909 167.857 40.896 167.409 40.896H160.171C159.561 40.896 159.09 40.3537 159.24 39.763C159.859 37.3223 161.298 35.2679 163.559 33.6C166.162 31.68 169.725 30.72 174.247 30.72C178.941 30.72 182.525 31.7653 184.999 33.856C187.474 35.9467 188.711 38.9547 188.711 42.88V57.28C188.711 58.3467 188.775 59.4347 188.903 60.544C189.014 61.2362 189.161 61.9643 189.344 62.7284C189.497 63.3709 189.019 64 188.358 64H180.835ZM168.679 64.64C165.437 64.64 162.855 63.8293 160.935 62.208C159.015 60.544 158.055 58.3467 158.055 55.616C158.055 52.5867 159.186 50.1547 161.447 48.32C163.751 46.4427 166.951 45.2267 171.047 44.672L179.444 43.4886C180.046 43.4038 180.583 43.871 180.583 44.4788V48.0376C180.583 48.5314 180.223 48.9512 179.735 49.026L172.647 50.112C170.941 50.368 169.682 50.8373 168.871 51.52C168.061 52.2027 167.655 53.1413 167.655 54.336C167.655 55.4027 168.039 56.2133 168.807 56.768C169.575 57.3227 170.599 57.6 171.879 57.6C173.885 57.6 175.591 57.0667 176.999 56C178.407 54.8907 178.723 52.82 179.111 52.16C179.453 51.5793 179.887 55.9834 179.987 57.0506C180.001 57.2026 179.979 57.3543 179.922 57.4958C178.983 59.8208 177.582 61.5835 175.719 62.784C173.799 64.0213 171.453 64.64 168.679 64.64Z" fill="#2563EB"/>
<path d="M129.803 77.12C129.077 77.12 128.593 76.3701 128.892 75.7082L137.278 57.152L138.892 54.4826C138.925 54.4277 138.953 54.3697 138.975 54.3094L147.15 32.0158C147.294 31.6219 147.669 31.36 148.088 31.36H156.108C156.828 31.36 157.312 32.0965 157.026 32.7567L138.115 76.5167C137.956 76.8829 137.596 77.12 137.197 77.12H129.803ZM136.074 63.0455C135.567 63.2212 135.011 62.9653 134.815 62.4656L123.157 32.725C122.9 32.0691 123.384 31.36 124.088 31.36H132.283C132.707 31.36 133.084 31.6273 133.226 32.0271L142.959 59.5955C143.144 60.1184 142.868 60.6918 142.344 60.8733L136.074 63.0455Z" fill="black"/>
<path d="M89.34 64C88.7877 64 88.34 63.5523 88.34 63V18.92C88.34 18.3677 88.7877 17.92 89.34 17.92H96.94C97.4923 17.92 97.94 18.3677 97.94 18.92V63C97.94 63.5523 97.4923 64 96.94 64H89.34ZM112.06 64C111.508 64 111.06 63.5523 111.06 63V43.776C111.06 41.984 110.591 40.64 109.652 39.744C108.756 38.848 107.433 38.4 105.684 38.4C104.191 38.4 102.847 38.7413 101.652 39.424C100.5 40.1067 99.5827 41.0453 98.9 42.24C98.26 43.4347 97.94 44.8427 97.94 46.464L97.1363 38.8593C97.1178 38.6842 97.1452 38.507 97.2197 38.3475C98.2823 36.0728 99.8024 34.2556 101.78 32.896C103.871 31.4453 106.431 30.72 109.46 30.72C113.087 30.72 115.86 31.744 117.78 33.792C119.7 35.7973 120.66 38.5067 120.66 41.92V63C120.66 63.5523 120.212 64 119.66 64H112.06Z" fill="black"/>
<path d="M72.2565 64C71.7042 64 71.2565 63.5523 71.2565 63V57.1295C71.2565 56.9425 71.4276 56.8022 71.611 56.8389C71.7695 56.8706 71.8738 57.0238 71.8398 57.1818C71.3636 59.3956 70.1025 61.1776 68.0565 62.528C65.9658 63.936 63.4485 64.64 60.5045 64.64C57.5178 64.64 54.9152 63.9573 52.6965 62.592C50.5205 61.184 48.8352 59.2213 47.6405 56.704C46.4458 54.1867 45.8485 51.2213 45.8485 47.808C45.8485 44.352 46.4672 41.344 47.7045 38.784C48.9418 36.224 50.6698 34.24 52.8885 32.832C55.1498 31.424 57.7738 30.72 60.7605 30.72C63.8752 30.72 66.3925 31.4453 68.3125 32.896C70.1855 34.2804 71.3203 36.1506 71.7167 38.5064C71.7479 38.692 71.6121 38.8622 71.4247 38.8793C71.2313 38.8969 71.0645 38.7445 71.0645 38.5503V18.92C71.0645 18.3677 71.5122 17.92 72.0645 17.92H79.6645C80.2168 17.92 80.6645 18.3677 80.6645 18.92V63C80.6645 63.5523 80.2168 64 79.6645 64H72.2565ZM63.5765 56.96C65.8378 56.96 67.6725 56.1707 69.0805 54.592C70.4885 52.9707 71.1925 50.6667 71.1925 47.68C71.1925 44.6933 70.4672 42.4107 69.0165 40.832C67.6085 39.2107 65.7525 38.4 63.4485 38.4C61.2298 38.4 59.3952 39.2107 57.9445 40.832C56.5365 42.4534 55.8325 44.7573 55.8325 47.744C55.8325 50.7307 56.5365 53.0133 57.9445 54.592C59.3952 56.1707 61.2725 56.96 63.5765 56.96Z" fill="black"/>
<path d="M1.95661 64C1.26463 64 0.781796 63.3141 1.01522 62.6627L16.8106 18.5827C16.953 18.1852 17.3297 17.92 17.7519 17.92H24.1141C24.795 17.92 25.2768 18.5858 25.0639 19.2327L10.5543 63.3127C10.4192 63.7228 10.0362 64 9.60439 64H1.95661ZM35.0526 64C34.6203 64 34.237 63.7223 34.1023 63.3115L19.6539 19.2315C19.4419 18.5849 19.9237 17.92 20.6041 17.92H27.3521C27.7743 17.92 28.151 18.1852 28.2935 18.5827L44.0888 62.6627C44.3222 63.3141 43.8394 64 43.1474 64H35.0526ZM9.24001 47.144C9.24001 46.5917 9.68773 46.144 10.24 46.144H34.096C34.6483 46.144 35.096 46.5917 35.096 47.144V52.824C35.096 53.3763 34.6483 53.824 34.096 53.824H10.24C9.68773 53.824 9.24001 53.3763 9.24001 52.824V47.144Z" fill="black"/>
</svg>
